# xmcd
#
# Track frame offsets: 
#        150
#        21488
#        37618
#        64333
#        80482
#        108644
#        127464
#        144358
#        165364
#        183153
#        206543
#        236721
#        256528
#        297206
#        314570
#
# Disc length: 4778 seconds
#
# Revision: 0
# Processed by: cddbd v1.5.2PL0 Copyright (c) Steve Scherf et al.
# Submitted via: ExactAudioCopy v0.95a5
#
DISCID=d412a80f
DTITLE=Various Artist - Akella Presents - Modern Electric Blues - vol.15  CD2
DYEAR=2010
DGENRE=Blues
TTITLE0=Sad Eyes - VARGAS BLUES BAND
TTITLE1=300 Pounds Of Brooklyn Love - BIG ED SULLIVAN
TTITLE2=Crazy Horse - GEOFF ACHISON and The SOULDIGGERS
TTITLE3=The Show Must Go On - AL BASILE
TTITLE4=Cold Rain - BLUES COMPANY
TTITLE5=Baby's Got a Train - MICHAEL POWERS
TTITLE6=It's Only Make Believe - GEORGE TERRY
TTITLE7=Would I Be Right - SONNY BLACK and The DUKES
TTITLE8=Woodstock Nation - BIG HOUSE
TTITLE9=Hard To Thrill - J.J.CALE and ERIC CLAPTON
TTITLE10=Can't Get You Off Of My Mind - The BARRELHOUSE BROTHERS
TTITLE11=Worried Man - The GALES BROTHERS.
TTITLE12=Elevator To Heaven - CHRIS BELL and 100% BLUES
TTITLE13=A Piece Of Your Lov - SNOWY WHITE
TTITLE14=Nasty Weather - BRAD KELSEY
EXTD=
EXTT0=
EXTT1=
EXTT2=
EXTT3=
EXTT4=
EXTT5=
EXTT6=
EXTT7=
EXTT8=
EXTT9=
EXTT10=
EXTT11=
EXTT12=
EXTT13=
EXTT14=
PLAYORDER=
